<svg width="111" height="26" viewBox="0 0 111 26" fill="none" xmlns="http://www.w3.org/2000/svg">
<g clip-path="url(#clip0_1_38186)">
<mask id="mask0_1_38186" style="mask-type:luminance" maskUnits="userSpaceOnUse" x="0" y="0" width="111" height="26">
<path d="M110.34 0.933594H0.339844V25.0662H110.34V0.933594Z" fill="white"/>
</mask>
<g mask="url(#mask0_1_38186)">
<path d="M96.4958 22.9093C101.218 23.5659 106.061 22.9168 110.13 20.294C110.146 20.2831 110.165 20.277 110.185 20.2762C110.205 20.2753 110.224 20.2798 110.241 20.2893C110.259 20.2987 110.273 20.3127 110.283 20.3295C110.293 20.3466 110.298 20.366 110.298 20.3857L110.293 22.6268C110.291 22.6867 110.263 22.7291 110.208 22.754C105.924 24.651 101.721 25.3469 97.1992 24.9091C91.6898 24.3741 86.3264 21.4931 85.1721 15.6172C84.7194 13.3199 84.856 10.7289 85.7072 8.51956C87.7201 3.28895 93.4988 1.16191 98.6471 0.963608C102.811 0.804595 106.504 1.65017 110.216 3.20102C110.239 3.21039 110.259 3.22663 110.273 3.24764C110.287 3.26865 110.294 3.29346 110.294 3.31888L110.293 5.66106C110.292 5.67664 110.288 5.69189 110.28 5.70521C110.272 5.71852 110.26 5.72945 110.247 5.73688C110.233 5.7443 110.217 5.74795 110.202 5.74745C110.186 5.74694 110.171 5.7423 110.158 5.73401C105.647 2.87551 100.118 2.14592 94.9524 3.36191C89.2017 4.71633 86.4143 9.04337 87.2468 14.8221C87.9651 19.8057 91.847 22.262 96.4958 22.9093Z" fill="white"/>
<path d="M2.64103 22.5842L19.2626 22.5861C19.3023 22.5861 19.3404 22.6018 19.3685 22.6299C19.3966 22.6579 19.4123 22.6959 19.4123 22.7358L19.4085 24.4176C19.4085 24.4372 19.4046 24.4567 19.3971 24.4748C19.3896 24.493 19.3786 24.5094 19.3648 24.5233C19.3507 24.5373 19.3343 24.5483 19.3161 24.5558C19.298 24.5633 19.2785 24.5672 19.2589 24.5672L0.49341 24.5859C0.453718 24.5859 0.415651 24.57 0.387584 24.542C0.359518 24.5139 0.34375 24.4759 0.34375 24.4363L0.347492 1.54199C0.347492 1.52234 0.351362 1.50287 0.358883 1.48472C0.366404 1.46656 0.377429 1.45006 0.391326 1.43616C0.405223 1.42227 0.421721 1.41124 0.439879 1.40372C0.458036 1.3962 0.477498 1.39233 0.497151 1.39233L2.33983 1.3811C2.37953 1.3811 2.4176 1.39687 2.44566 1.42494C2.47372 1.45301 2.48949 1.49107 2.48949 1.53077L2.49137 22.4346C2.49137 22.4742 2.50714 22.5122 2.5352 22.5403C2.56328 22.5683 2.60133 22.5842 2.64103 22.5842Z" fill="white"/>
<path d="M78.724 5.08875C78.7244 5.07809 78.7212 5.06769 78.715 5.05914C78.7086 5.05059 78.6997 5.04436 78.6894 5.04139C78.6789 5.03843 78.6679 5.0389 78.6576 5.04272C78.6473 5.04655 78.6383 5.05351 78.6323 5.06256L66.1657 24.4005C66.1271 24.4601 66.0744 24.5092 66.0123 24.5428C65.9501 24.5765 65.8806 24.5937 65.8102 24.5932L64.4221 24.5875C64.34 24.587 64.2594 24.566 64.1875 24.5264C64.1155 24.4869 64.0547 24.4302 64.0106 24.3612L51.6094 5.0925C51.5009 4.92413 51.4466 4.93973 51.4466 5.13926L51.4578 24.4959C51.4578 24.5178 51.449 24.5387 51.4331 24.5541C51.4174 24.5696 51.3959 24.5782 51.3736 24.5782L49.4674 24.5726C49.4241 24.5726 49.3828 24.5554 49.3523 24.5249C49.3218 24.4944 49.3046 24.453 49.3046 24.4098L49.3027 1.48944C49.3027 1.46215 49.3136 1.43598 49.3328 1.41669C49.3521 1.39739 49.3783 1.38655 49.4056 1.38655H51.4447C51.4894 1.38657 51.5332 1.39755 51.5721 1.41846C51.611 1.43938 51.6438 1.46958 51.6674 1.50628L65.0563 22.2136C65.0668 22.2298 65.0812 22.2431 65.0982 22.2523C65.1152 22.2616 65.1343 22.2665 65.1536 22.2665C65.1728 22.2665 65.1919 22.2616 65.209 22.2523C65.226 22.2431 65.2404 22.2298 65.2509 22.2136L78.4527 1.55679C78.4866 1.50458 78.533 1.46167 78.5876 1.43194C78.642 1.40221 78.7032 1.38661 78.7651 1.38655L80.7388 1.3772C80.771 1.3772 80.802 1.39001 80.8248 1.41281C80.8475 1.43562 80.8604 1.46654 80.8604 1.49879L80.8566 24.4585C80.8566 24.4766 80.8527 24.4946 80.845 24.5112C80.8372 24.5279 80.826 24.543 80.8117 24.5557C80.7973 24.5685 80.7805 24.5784 80.7618 24.5851C80.7433 24.592 80.7233 24.5952 80.7032 24.595L78.8381 24.5726C78.8076 24.5722 78.7786 24.5597 78.7573 24.538C78.736 24.5163 78.724 24.4871 78.724 24.4566V5.08875Z" fill="white"/>
<path d="M39.7768 12.108C39.3328 12.204 39.3377 12.2614 39.7917 12.2801C41.0689 12.3337 42.2961 12.7547 43.4734 13.5429C45.4414 14.858 45.7182 18.0327 45.2113 20.126C44.1824 24.3838 38.7553 24.627 35.3225 24.614C31.5187 24.599 27.7147 24.5947 23.9109 24.6009C23.4633 24.6022 23.0162 24.5797 22.5696 24.5335C22.541 24.5311 22.5142 24.518 22.4948 24.4965C22.4755 24.475 22.4647 24.4467 22.4648 24.4175L22.4705 1.6262C22.4705 1.47405 22.5472 1.39735 22.7006 1.3961C27.2253 1.37989 31.7911 1.39111 36.3982 1.42978C39.7637 1.45784 43.4228 2.45869 43.7128 6.51259C43.9279 9.49269 42.8691 11.4401 39.7768 12.108ZM24.6181 3.33606L24.5919 11.2681C24.5919 11.2744 24.5932 11.2808 24.5956 11.2866C24.5981 11.2926 24.6016 11.2979 24.6061 11.3024C24.6106 11.3069 24.616 11.3105 24.622 11.313C24.6278 11.3154 24.6342 11.3167 24.6405 11.3167L36.7443 11.3597C37.4002 11.3621 38.0499 11.2754 38.6565 11.1047C39.263 10.9339 39.8145 10.6824 40.2794 10.3645C40.7443 10.0465 41.1134 9.66847 41.366 9.25181C41.6183 8.83518 41.7489 8.38815 41.7504 7.93623L41.7541 6.78759C41.7571 5.87519 41.2339 4.99835 40.2996 4.35002C39.3654 3.70168 38.0966 3.33494 36.7723 3.33045L24.6686 3.28744C24.662 3.28718 24.6555 3.28824 24.6493 3.29058C24.6433 3.29292 24.6377 3.29645 24.633 3.301C24.6282 3.30555 24.6244 3.31099 24.622 3.31701C24.6194 3.32304 24.6181 3.32951 24.6181 3.33606ZM37.1802 22.6085C39.7917 22.5804 42.9795 21.9425 43.1965 18.7529C43.3349 16.71 42.7138 14.9104 40.714 14.0498C39.432 13.4986 37.868 13.2249 36.0222 13.2286C32.2345 13.2361 28.4587 13.2417 24.6948 13.2454C24.6411 13.2454 24.6143 13.2722 24.6143 13.3259L24.5994 22.4963C24.5994 22.5898 24.6461 22.6366 24.7397 22.6366C28.8753 22.6603 33.022 22.651 37.1802 22.6085Z" fill="white"/>
</g>
</g>
<defs>
<clipPath id="clip0_1_38186">
<rect width="110" height="24.1327" fill="white" transform="translate(0.339844 0.933594)"/>
</clipPath>
</defs>
</svg>
