<svg width="130" height="22" viewBox="0 0 130 22" fill="none" xmlns="http://www.w3.org/2000/svg">
<g clip-path="url(#clip0_1_38208)">
<mask id="mask0_1_38208" style="mask-type:luminance" maskUnits="userSpaceOnUse" x="0" y="0" width="130" height="23">
<path d="M129.961 0H0.0429688V22.81H129.961V0Z" fill="white"/>
</mask>
<g mask="url(#mask0_1_38208)">
<path d="M8.42292 13.2809C8.47894 12.0937 9.43134 10.8388 10.6553 10.2497C11.7342 9.73033 12.4485 9.63624 15.5572 9.60398C15.9193 9.60022 17.6626 9.59712 19.4311 9.59709L22.6464 9.59704V9.61695C22.6464 9.6396 22.5787 10.1978 22.5457 10.4464C21.6302 17.3584 17.7636 21.2779 11.3559 21.7892C10.866 21.8284 10.6098 21.838 9.85651 21.8457C8.72468 21.8573 8.10846 21.8797 7.80597 21.9203C7.66723 21.9389 7.66236 21.941 7.59413 22.0109C7.45816 22.15 6.95555 22.5606 6.59822 22.8245L6.57136 22.8443V22.7978C6.57136 22.7723 6.58105 22.5927 6.59289 22.3986C6.60471 22.2046 6.62087 21.9401 6.62877 21.8108C6.67257 21.0928 6.69857 20.7507 6.73993 20.3472C6.78616 19.8964 6.81181 19.7141 6.86844 19.4347C6.94033 19.0799 7.02682 18.5415 7.09058 18.0519C7.16523 17.4788 7.21386 17.3644 7.42841 17.2572C7.70414 17.1193 8.06162 17.0939 9.73029 17.0936C10.7974 17.0933 11.9908 17.0838 12.3281 17.0728C14.2338 17.0104 14.7624 16.7958 15.3377 15.8509C15.4665 15.6393 15.8063 14.9921 15.9491 14.6861C16.4827 13.5432 16.2182 13.3591 13.9504 13.2953C13.7855 13.2907 12.6688 13.2864 11.0525 13.2842L8.42292 13.2809ZM2.38441 18.8638C2.21954 18.8098 2.02941 18.6503 1.72137 18.3076C0.026164 16.4219 -0.412074 13.5065 0.530775 10.3867C1.46785 7.28598 3.61443 4.44909 6.43537 2.58336C9.12478 0.804578 10.5978 0.484296 16.6308 0.366504C19.1504 0.31733 20.7249 0.231328 21.7088 0.0891841C22.9092 -0.0842288 22.9344 -0.0693515 22.7959 0.731548C22.4982 2.45453 22.1424 3.18104 21.3438 3.69702C20.4847 4.25206 19.2631 4.49662 16.2765 4.71151C14.6574 4.82797 13.3428 5.03853 12.0968 5.38081C7.41271 6.6676 4.65735 9.71316 3.41148 14.9809C3.08074 16.3794 2.85902 17.5753 2.84258 18.0498C2.82608 18.5255 2.75238 18.7623 2.59227 18.8543C2.54935 18.879 2.44532 18.8838 2.38441 18.8638Z" fill="#00E676"/>
<path d="M85.0017 13.1081C84.5959 13.0603 84.0421 13.0462 83.5093 13.0459L82.5406 13.0455V11.7205V10.3957L83.1823 10.3635C84.0173 10.3218 87.5024 10.3217 88.198 10.3634L88.7382 10.3959L88.7177 11.8071C88.6881 13.8314 88.4036 14.653 87.3529 15.7486C86.0774 17.0786 83.592 17.8017 81.4631 17.4619C78.2856 16.9548 76.1181 14.4285 76.1286 11.2441C76.1475 5.53361 83.1754 2.8894 87.4304 6.99185C87.8456 7.39222 88.4376 8.10537 88.4157 8.17891C88.3952 8.24732 86.084 9.74555 85.8809 9.82198C85.8317 9.84048 85.6842 9.72039 85.45 9.47111C84.2646 8.2094 82.5593 7.82718 81.2574 8.53141C79.1709 9.66006 79.1126 12.7637 81.1551 13.9778C82.4159 14.7273 84.272 14.392 84.8908 13.3032L85.0017 13.1081ZM90.3909 5.24763H93.8128V8.89073C93.8128 12.8491 93.8162 12.9041 94.0932 13.4729C94.776 14.8757 96.7672 14.6553 97.2295 13.1258C97.3336 12.7812 97.3358 12.6972 97.3356 9.01084L97.3355 5.24763H99.0464H100.757V9.31385C100.757 13.8206 100.759 13.7963 100.429 14.6356C99.6433 16.631 97.1649 17.8526 94.6935 17.4623C92.5173 17.1186 91.1256 16.0372 90.622 14.2987C90.4052 13.5504 90.3909 13.231 90.3909 9.13551V5.24763ZM26.582 17.2842V5.24763H31.0103H35.4388V6.80226V8.3569L32.8095 8.35765C31.2442 8.35812 30.1495 8.37731 30.1046 8.40513C30.019 8.45804 29.9683 9.50091 30.0284 9.9723L30.0615 10.2323H32.5236H34.9858V11.8117V13.3909H32.5266H30.0674L30.0363 13.5761C30.0191 13.6778 30.0048 14.5519 30.0045 15.5185L30.0039 17.2759L29.6946 17.3076C29.3764 17.3402 27.1774 17.3369 26.7959 17.3031L26.582 17.2842ZM37.0994 17.2861V5.24763H38.8104H40.5213V11.2611V17.2744L39.683 17.3068C38.8727 17.3381 38.4728 17.3373 37.5398 17.3025L37.0994 17.2861ZM42.6852 17.2868V5.24763H47.0884H51.4916V6.80226V8.3569L48.8622 8.35765C47.4162 8.35807 46.204 8.37647 46.1685 8.3985C46.1202 8.42856 46.1076 8.6042 46.1182 9.10102L46.1323 9.76348L48.6114 9.77628L51.0905 9.78909L51.0772 11.3309L51.0639 12.8727L48.5981 12.8991C47.2419 12.9136 46.1266 12.9302 46.1197 12.9361C46.0554 12.9909 46.1179 14.1248 46.1867 14.1507C46.2306 14.1672 47.4421 14.1806 48.879 14.1806H51.4916V15.7283V17.2759L51.1823 17.3076C50.883 17.3382 44.4741 17.3341 43.2765 17.3024L42.6852 17.2868ZM53.3535 17.2845V5.24763H55.0646H56.7755V9.58754C56.7755 12.2879 56.7941 13.9753 56.8246 14.054L56.8736 14.1806H59.542H62.2104V15.7282V17.2757L61.8707 17.3071C61.5199 17.3395 54.0178 17.3359 53.5926 17.303L53.3535 17.2845ZM63.569 17.2867V5.24763L66.3745 5.24784C68.6167 5.24799 69.2726 5.26276 69.6416 5.32144C72.1719 5.72393 74.0971 7.62075 74.5166 10.1243C75.1 13.607 73.0777 16.5916 69.7084 17.2204C69.2831 17.2999 65.6799 17.3544 64.1352 17.3048L63.569 17.2867ZM102.77 17.2848V5.24763H104.481H106.192V11.2616V17.2755L105.807 17.3073C105.419 17.3395 103.524 17.3365 103.034 17.3028L102.77 17.2848ZM108.304 17.2839L108.308 5.24202L111.339 5.26166C114.531 5.28234 114.437 5.2762 115.275 5.51868C116.573 5.89415 117.78 6.84504 118.559 8.10377C118.649 8.24958 118.722 8.37663 118.722 8.3861C118.722 8.39558 118.781 8.52944 118.853 8.68355C119.444 9.95097 119.54 11.778 119.09 13.2429C118.463 15.2905 116.729 16.7895 114.492 17.2202C114.082 17.2991 109.064 17.3704 108.494 17.3054L108.304 17.2839ZM121.088 17.2852V5.24763H125.491H129.894V6.80226V8.3569L127.315 8.35758C125.897 8.35794 124.685 8.3718 124.621 8.38837C124.508 8.41807 124.507 8.4276 124.521 9.09098L124.535 9.76348L127 9.78815L129.466 9.81281V11.3428V12.8727L127 12.8991C125.645 12.9136 124.529 12.9302 124.522 12.9361C124.458 12.9909 124.52 14.1248 124.589 14.1507C124.633 14.1672 125.844 14.1806 127.281 14.1806H129.894V15.728V17.2753L129.479 17.307C129.06 17.3389 121.986 17.3353 121.402 17.3027L121.088 17.2852ZM69.1106 14.0867C71.8594 13.3973 71.6934 8.85116 68.9032 8.40943C68.4961 8.34499 67.1936 8.34195 67.0916 8.40521C67.0259 8.44593 67.0161 8.81869 67.0161 11.2688C67.0161 13.7189 67.0259 14.0916 67.0916 14.1323C67.2376 14.2228 68.6996 14.1898 69.1106 14.0867ZM113.797 14.1095C116.285 13.5925 116.617 9.59947 114.258 8.5763C113.827 8.38965 112.193 8.26063 111.858 8.38686C111.75 8.42711 111.735 14.1058 111.841 14.1479C111.985 14.2053 113.478 14.1761 113.797 14.1095Z" fill="white"/>
</g>
</g>
<defs>
<clipPath id="clip0_1_38208">
<rect width="129.918" height="22.81" fill="white" transform="translate(0.0429688)"/>
</clipPath>
</defs>
</svg>
