<svg width="91" height="28" viewBox="0 0 91 28" fill="none" xmlns="http://www.w3.org/2000/svg">
<g clip-path="url(#clip0_1_39051)">
<g clip-path="url(#clip1_1_39051)">
<path d="M30.1289 22.0156V4.59085H37.9727C39.8327 4.59085 41.298 5.09974 42.3684 6.11749C43.4387 7.11771 43.974 8.47764 43.974 10.1973C43.974 11.917 43.4387 13.2857 42.3684 14.3035C41.298 15.3037 39.8327 15.8038 37.9727 15.8038H32.103V22.0156H30.1289ZM32.103 13.9613H37.8411C39.2098 13.9613 40.2452 13.6279 40.947 12.9611C41.6488 12.2942 41.9999 11.373 41.9999 10.1973C41.9999 9.03917 41.6488 8.1267 40.947 7.45989C40.2452 6.79307 39.2098 6.45967 37.8411 6.45967H32.103V13.9613ZM45.0512 22.0156V3.59064H47.0253V22.0156H45.0512ZM54.8186 22.2262C53.5378 22.2262 52.4145 21.9279 51.4495 21.3313C50.5019 20.7171 49.7649 19.8924 49.2385 18.8571C48.7121 17.8217 48.4489 16.6812 48.4489 15.4353C48.4489 14.1719 48.7121 13.0312 49.2385 12.0135C49.7649 10.9782 50.5019 10.1622 51.4495 9.5656C52.4145 8.95143 53.5378 8.64435 54.8186 8.64435C55.9067 8.64435 56.8365 8.85492 57.6087 9.27607C58.3984 9.69721 59.0389 10.2675 59.5302 10.987V8.85492H61.5043V22.0156H59.5302V19.9099C59.0389 20.6118 58.3984 21.1734 57.6087 21.5945C56.8365 22.0156 55.9067 22.2262 54.8186 22.2262ZM55.0819 20.4364C56.0646 20.4364 56.8892 20.2082 57.5561 19.752C58.2404 19.2957 58.758 18.6904 59.109 17.9358C59.4601 17.1637 59.6355 16.3302 59.6355 15.4353C59.6355 14.5228 59.4601 13.6893 59.109 12.9347C58.758 12.1802 58.2404 11.5748 57.5561 11.1186C56.8892 10.6623 56.0646 10.4342 55.0819 10.4342C54.1168 10.4342 53.2831 10.6623 52.5813 11.1186C51.8795 11.5748 51.3442 12.1802 50.9757 12.9347C50.6072 13.6893 50.423 14.5228 50.423 15.4353C50.423 16.3302 50.6072 17.1637 50.9757 17.9358C51.3442 18.6904 51.8795 19.2957 52.5813 19.752C53.2831 20.2082 54.1168 20.4364 55.0819 20.4364ZM63.7344 22.0156V8.85492H65.7085V10.908C66.1823 10.2763 66.7614 9.74107 67.4458 9.30239C68.1301 8.8637 69.0073 8.64435 70.0779 8.64435C70.9903 8.64435 71.8414 8.8637 72.6311 9.30239C73.4382 9.72353 74.0874 10.364 74.5789 11.2239C75.0876 12.0661 75.3422 13.1102 75.3422 14.3561V22.0156H73.3681V14.4087C73.3681 13.2155 73.0259 12.2592 72.3415 11.5397C71.6572 10.8027 70.7709 10.4342 69.6831 10.4342C68.9461 10.4342 68.2792 10.6009 67.6826 10.9343C67.0859 11.2677 66.6035 11.7415 66.235 12.3557C65.8839 12.9523 65.7085 13.6454 65.7085 14.4351V22.0156H63.7344ZM83.3018 22.2262C81.9682 22.2262 80.8012 21.9279 79.801 21.3313C78.8008 20.7171 78.02 19.8924 77.4584 18.8571C76.9145 17.8217 76.6425 16.6812 76.6425 15.4353C76.6425 14.1719 76.9057 13.0312 77.4321 12.0135C77.9585 10.9782 78.7132 10.1622 79.6957 9.5656C80.6785 8.95143 81.8366 8.64435 83.1702 8.64435C84.5214 8.64435 85.6796 8.95143 86.6446 9.5656C87.6273 10.1622 88.3818 10.9782 88.9082 12.0135C89.4347 13.0312 89.6979 14.1719 89.6979 15.4353V16.2249H78.6692C78.7745 16.997 79.0202 17.7077 79.4062 18.357C79.8099 18.9887 80.3452 19.4976 81.0118 19.8836C81.6787 20.2521 82.4509 20.4364 83.3281 20.4364C84.2582 20.4364 85.039 20.2346 85.6707 19.831C86.3024 19.4098 86.7939 18.8746 87.1447 18.2254H89.3031C88.847 19.401 88.1186 20.3662 87.1184 21.1207C86.1359 21.8577 84.8636 22.2262 83.3018 22.2262ZM78.6955 14.3824H87.6448C87.4694 13.2594 86.9956 12.3206 86.2235 11.566C85.4515 10.8115 84.4336 10.4342 83.1702 10.4342C81.9067 10.4342 80.8891 10.8115 80.1169 11.566C79.3624 12.3206 78.8886 13.2594 78.6955 14.3824Z" fill="white"/>
<path d="M19.3824 1.91608H6.46094V8.61608H12.9217V15.0768H19.3824V1.91608Z" fill="#F8F9FA"/>
<path d="M6.46071 8.61603H0V15.0767H6.46071V8.61603Z" fill="#F8F9FA"/>
<path d="M12.9217 15.0768H6.46094V21.5375H12.9217V15.0768Z" fill="#F8F9FA"/>
</g>
</g>
<defs>
<clipPath id="clip0_1_39051">
<rect width="90.45" height="28" fill="white"/>
</clipPath>
<clipPath id="clip1_1_39051">
<rect width="90.45" height="28" fill="white"/>
</clipPath>
</defs>
</svg>
