<svg width="240" height="52" viewBox="0 0 240 52" fill="none" xmlns="http://www.w3.org/2000/svg">
<g clip-path="url(#clip0_1_38265)">
<g clip-path="url(#clip1_1_38265)">
<g clip-path="url(#clip2_1_38265)">
<mask id="mask0_1_38265" style="mask-type:luminance" maskUnits="userSpaceOnUse" x="0" y="0" width="60" height="51">
<path d="M0.360046 0.603027H59.6328V50.5426H0.360046V0.603027Z" fill="white"/>
</mask>
<g mask="url(#mask0_1_38265)">
<path fill-rule="evenodd" clip-rule="evenodd" d="M41.9292 0.76107C41.511 1.21854 42.3141 2.60749 43.7194 3.86385C44.7768 4.81193 46.0383 5.23624 46.6539 5.32243C47.534 5.99867 48.3304 6.71471 49.0497 7.46719L49.1267 7.5567C48.6114 7.27493 47.2897 6.8672 45.8174 7.0462C43.9403 7.27162 42.478 7.95117 42.5516 8.56444C42.6252 9.1777 44.2113 9.48927 46.0885 9.26387C47.8351 9.05505 49.1769 8.09372 49.3376 7.80201L50.2008 8.78986C50.3514 8.97549 50.4952 9.16444 50.6358 9.35667L51.0273 9.90701C51.4155 10.4771 51.7702 11.0572 52.088 11.6539C51.6631 11.2529 50.4885 10.5236 49.0196 10.318C47.1459 10.0595 45.5565 10.3445 45.4694 10.9545C45.3824 11.5644 46.8347 12.2705 48.7084 12.5291C50.4652 12.7711 52.0211 12.1744 52.2319 11.9357C52.9513 13.3379 53.4766 14.8065 53.8279 16.3082C53.4833 15.7943 52.5565 14.8529 51.2481 14.3092C49.5014 13.5866 47.892 13.4606 47.651 14.0308C47.4101 14.6009 48.6315 15.6452 50.3782 16.3678C51.9676 17.0242 53.5803 16.8683 53.915 16.696C54.1894 18.0021 54.3332 19.3314 54.3567 20.6706C54.3567 22.2618 54.1961 23.853 53.9083 25.4044L53.6439 26.3591C53.6172 25.769 53.2892 24.4497 52.3891 23.3027C51.2314 21.8209 49.8896 20.9258 49.3977 21.3038C48.9058 21.6816 49.4479 23.19 50.6057 24.6717C51.6965 26.064 53.2357 26.7137 53.5503 26.6839L52.7572 29.5414C51.9508 31.7259 50.9035 33.8011 49.5684 35.7039C49.7692 35.2663 50.0134 33.7879 49.5383 32.2597C48.9795 30.4696 48.0426 29.1635 47.4503 29.3458C46.8547 29.5282 46.8279 31.1292 47.3868 32.9193C47.9455 34.7094 49.284 35.8928 49.4747 35.8331C49.4781 35.8331 49.4814 35.8299 49.4814 35.8299C49.2438 36.1614 48.9995 36.4895 48.7452 36.8111L46.5937 39.1215C46.838 38.4818 47.0789 37.3945 46.9283 36.2144C46.6941 34.3547 46.0015 32.9094 45.3824 32.9856C44.7667 33.0618 44.4556 34.6332 44.6931 36.4929C44.8973 38.0906 45.7405 39.3437 46.1019 39.6487L45.8275 39.9436L42.7424 42.4564C43.1071 41.8796 43.5688 40.8321 43.6425 39.6089C43.7563 37.7393 43.3447 36.1911 42.7223 36.1547C42.0999 36.1182 41.5077 37.6067 41.3939 39.4763C41.2968 41.0807 41.8958 42.463 42.1936 42.8343C40.9957 43.6067 39.7442 44.2332 38.4259 44.7503C38.8877 44.2332 39.4732 43.3547 39.7711 42.2674C40.2629 40.4575 40.1759 38.8597 39.577 38.7006C38.9747 38.5414 38.0913 39.8773 37.5961 41.6873C37.2012 43.1393 37.4422 44.5216 37.6496 45.042C37.4154 45.1249 37.1778 45.2045 36.9369 45.2841L33.641 46.0464C34.1998 45.6387 34.9259 44.9326 35.4412 43.9813C36.3313 42.3271 36.6123 40.7525 36.0635 40.4608C35.5148 40.169 34.347 41.2763 33.457 42.9304C32.7241 44.2862 32.6573 45.7249 32.7543 46.2487L30.1678 46.7393C30.1075 46.7559 30.0506 46.7725 29.9904 46.7923C29.9302 46.7725 29.8733 46.7559 29.8131 46.7393L27.2265 46.2487C27.3236 45.7249 27.2566 44.2862 26.5238 42.9304C25.6338 41.2763 24.466 40.1724 23.9172 40.4608C23.3685 40.7525 23.6462 42.3271 24.5396 43.9813C25.0516 44.9326 25.7777 45.6354 26.3398 46.0464L23.0439 45.2841C22.803 45.2078 22.5654 45.1249 22.3311 45.042C22.542 44.5249 22.7795 43.1393 22.3847 41.6873C21.8928 39.8773 21.0061 38.5414 20.4038 38.7006C19.8015 38.8597 19.7145 40.4575 20.2098 42.2674C20.5076 43.3581 21.0931 44.2365 21.5549 44.7503C20.2365 44.2332 18.9851 43.6067 17.7872 42.8343C18.085 42.463 18.684 41.0807 18.5869 39.4763C18.4731 37.6067 17.8775 36.1182 17.2585 36.1547C16.6362 36.1911 16.2246 37.7393 16.3384 39.6089C16.4119 40.8321 16.8704 41.8796 17.2385 42.4564L14.1534 39.9436L13.8789 39.6487C14.2403 39.3404 15.0869 38.0873 15.2877 36.4929C15.5219 34.6332 15.214 33.0618 14.5984 32.9856C13.9827 32.9094 13.29 34.3547 13.0525 36.2144C12.9019 37.3945 13.1428 38.4818 13.3871 39.1215L11.2355 36.8111C10.9812 36.4895 10.7336 36.1646 10.4994 35.8299C10.5027 35.8299 10.5061 35.8331 10.5061 35.8331C10.6968 35.8928 12.0352 34.7094 12.594 32.9193C13.1529 31.1292 13.1227 29.5282 12.5304 29.3458C11.9348 29.1635 11.0013 30.4696 10.4425 32.2597C9.96399 33.7879 10.2083 35.2663 10.4124 35.7039C9.0773 33.8044 8.02998 31.7259 7.22357 29.5414L6.43054 26.6839C6.74508 26.7104 8.28763 26.064 9.37508 24.6717C10.5328 23.19 11.075 21.6816 10.583 21.3038C10.0911 20.9258 8.75274 21.8209 7.59164 23.3027C6.69154 24.4497 6.36362 25.769 6.33685 26.3591L6.07251 25.4044C5.78475 23.853 5.62413 22.2585 5.62413 20.6673C5.64421 19.3281 5.78809 17.9954 6.06582 16.6927C6.40042 16.8651 8.01325 17.0209 9.60262 16.3645C11.3493 15.6419 12.5706 14.5943 12.3297 14.0274C12.0888 13.4573 10.4794 13.5833 8.73266 14.3059C7.42099 14.8496 6.49747 15.791 6.15282 16.3049C6.50081 14.7998 7.0295 13.3347 7.7489 11.9324C7.95971 12.1711 9.51898 12.7677 11.2724 12.5258C13.1462 12.2672 14.595 11.5611 14.5114 10.9512C14.4243 10.3412 12.8349 10.0562 10.9612 10.3147C9.49224 10.5169 8.31774 11.2462 7.89278 11.6507C8.21066 11.0572 8.56201 10.4738 8.9535 9.90364L9.34503 9.35339C9.48555 9.16444 9.62937 8.97549 9.77996 8.78654L10.6433 7.79869C10.8039 8.0904 12.1457 9.05173 13.8923 9.26059C15.7695 9.48599 17.3555 9.17439 17.4292 8.56112C17.5027 7.94786 16.0406 7.27162 14.1634 7.04288C12.6911 6.8672 11.3694 7.27493 10.8541 7.55338L10.931 7.46388C11.6505 6.71139 12.4468 5.99536 13.3268 5.31912C13.9425 5.22961 15.2007 4.8053 16.2613 3.86054C17.6667 2.60418 18.4664 1.21522 18.0515 0.757755C17.6333 0.300294 16.1576 0.946707 14.7523 2.20307C13.3503 3.45612 12.8282 5.15337 12.9622 5.30586L12.0654 6.16442L12.0386 6.19426C11.6003 6.57216 11.0683 7.03957 10.573 7.58985C10.0812 8.13681 9.5123 8.91583 9.00369 9.66504L8.85981 9.82742C7.35072 11.8296 6.29001 14.2263 5.85167 16.6894C5.57729 18.2374 5.45014 19.8187 5.46687 21.3966C5.38656 20.833 4.90807 19.527 3.85405 18.4628C2.529 17.127 1.09353 16.391 0.648498 16.8253C0.203468 17.2562 0.919529 18.6916 2.24793 20.0275C3.57299 21.3634 5.30961 21.8043 5.45349 21.6651C5.46018 21.6584 5.46687 21.6452 5.47021 21.6286C5.50368 23.1667 5.67432 24.7048 5.98552 26.2099C5.69775 25.6132 4.99842 24.612 3.9009 23.8861C2.32824 22.8452 0.772303 22.4143 0.427653 22.9248C0.0830024 23.4386 1.07679 24.6983 2.64946 25.7391C4.15186 26.7369 5.85502 26.8563 6.09928 26.7203C6.15951 26.9823 6.22308 27.2441 6.29335 27.5027L7.63179 31.169C7.29049 30.6519 6.37366 29.7038 5.07203 29.1469C3.33206 28.4077 1.72259 28.2685 1.47833 28.8353C1.23406 29.4021 2.44535 30.4597 4.18532 31.1989C5.8684 31.9149 7.58829 31.7061 7.76564 31.527L9.70302 35.2895C9.70641 35.2928 9.7064 35.2961 9.7097 35.2995C9.16769 34.8651 8.28093 34.3348 7.20349 34.0862C5.35979 33.6585 3.75367 33.7978 3.60979 34.3978C3.46925 34.9977 4.84784 35.8299 6.68819 36.2574C8.3144 36.6354 9.83355 36.2542 10.1982 36.0254C11.0548 37.2453 12.0319 38.3857 13.0792 39.4498C12.5004 39.0884 11.4329 38.6309 10.1848 38.5646C8.29432 38.4619 6.73504 38.8763 6.70158 39.4928C6.66812 40.1094 8.17052 40.6895 10.0611 40.7956C11.8512 40.8951 13.367 40.1525 13.5309 39.9038C13.6414 40.0133 13.7518 40.1193 13.8656 40.2254L16.867 42.7481C16.2145 42.5128 15.1337 42.2906 13.9593 42.4398C12.0821 42.6818 10.6266 43.3747 10.7069 43.9846C10.7871 44.5946 12.3732 44.8962 14.2504 44.6542C15.9502 44.4354 17.2618 43.5073 17.4727 43.1857C18.6806 43.9945 19.9622 44.6642 21.2939 45.2211C20.6046 45.1315 19.5372 45.1448 18.4597 45.5128C16.6729 46.126 15.388 47.094 15.5888 47.6774C15.7929 48.2608 17.4057 48.2343 19.1959 47.6211C20.8388 47.0575 21.9397 45.8608 22.0568 45.5261C22.9937 45.8841 23.9574 46.189 24.9378 46.4476C25.2524 46.5305 25.5668 46.6001 25.8847 46.6631C25.2222 46.7757 24.3756 47.031 23.5759 47.5283C21.9732 48.526 20.9425 49.7559 21.2739 50.2763C21.6051 50.7968 23.171 50.4122 24.7738 49.4178C26.0989 48.5923 26.8819 47.3658 27.0525 46.8719C27.6682 46.978 28.2772 47.0907 28.8728 47.2498C28.4947 47.4652 28.1434 47.7272 27.8522 48.0354L27.2767 48.7912C27.1596 49.0399 27.2667 49.3349 27.5176 49.4542C27.7686 49.5703 28.0664 49.4642 28.1869 49.2155C28.3976 48.7846 28.6185 48.4067 29.0401 48.1316C29.3479 47.9327 29.6658 47.767 29.9937 47.6277C30.3217 47.767 30.6395 47.9327 30.9474 48.1316C31.369 48.4034 31.5898 48.7813 31.8006 49.2155C31.9178 49.4642 32.2189 49.5703 32.4699 49.4542C32.7208 49.3382 32.8279 49.0399 32.7108 48.7912L32.1352 48.0354C31.8408 47.7272 31.4928 47.4652 31.1147 47.2498C31.7103 47.0907 32.3226 46.978 32.9349 46.8719C33.1056 47.3658 33.8852 48.5923 35.2136 49.4178C36.8164 50.4156 38.3824 50.8001 38.7137 50.2763C39.0449 49.7559 38.0143 48.5228 36.4115 47.5283C35.6118 47.031 34.7619 46.7725 34.1028 46.6631C34.4206 46.6001 34.7385 46.5305 35.0497 46.4476C36.0301 46.1857 36.9905 45.8808 37.9307 45.5261C38.0477 45.8642 39.1486 47.0609 40.7916 47.6211C42.5784 48.2343 44.1946 48.2576 44.3987 47.6774C44.6028 47.094 43.3179 46.126 41.5277 45.5128C40.4503 45.1415 39.3829 45.1315 38.6936 45.2211C40.0254 44.6642 41.3069 43.9912 42.5149 43.1857C42.7256 43.5039 44.0373 44.4321 45.7371 44.6542C47.6143 44.8962 49.2003 44.5979 49.2807 43.9846C49.3609 43.3747 47.9054 42.6818 46.0282 42.4398C44.8538 42.2874 43.7729 42.5094 43.1205 42.7481L46.1219 40.2254C46.2323 40.1193 46.3461 40.0099 46.4565 39.9038C46.6171 40.1525 48.1329 40.8918 49.9265 40.7956C51.817 40.6929 53.3194 40.1094 53.2859 39.4928C53.2525 38.8763 51.6931 38.4619 49.8026 38.5646C48.5579 38.6343 47.4905 39.0884 46.9082 39.4498C47.9522 38.3857 48.9327 37.242 49.7892 36.0254C50.154 36.2542 51.6731 36.6354 53.2993 36.2574C55.143 35.8299 56.5216 34.9977 56.3777 34.3978C56.2372 33.7978 54.6277 33.6585 52.784 34.0862C51.7032 34.3381 50.8165 34.8651 50.2778 35.2995C50.2812 35.2961 50.2812 35.2928 50.2845 35.2895L52.2219 31.527C52.3992 31.7061 54.119 31.9149 55.8022 31.1989C57.5422 30.4597 58.7534 29.4021 58.5091 28.8353C58.2649 28.2685 56.6554 28.4077 54.9154 29.1469C53.6105 29.7005 52.697 30.6519 52.3557 31.169L53.6941 27.5027C53.7644 27.2441 53.8279 26.9823 53.8882 26.7203C54.1325 26.8563 55.8356 26.7369 57.3381 25.7391C58.9107 24.6983 59.9045 23.4353 59.5598 22.9248C59.2152 22.4109 57.6592 22.8419 56.0866 23.8861C54.9891 24.612 54.2864 25.6165 54.002 26.2099C54.3165 24.7048 54.4872 23.1667 54.5172 21.6286C54.5206 21.6452 54.5273 21.6584 54.534 21.6651C54.6779 21.8043 56.4145 21.3634 57.7396 20.0275C59.0646 18.6916 59.7807 17.2562 59.339 16.8253C58.8939 16.3943 57.4585 17.127 56.1334 18.4628C55.0794 19.5236 54.6009 20.833 54.5206 21.3966C54.5373 19.8187 54.4102 18.2374 54.1358 16.6894C53.7008 14.2263 52.6401 11.8296 51.1277 9.82742L50.9837 9.66504C50.4752 8.91583 49.9063 8.14013 49.4145 7.58985C48.9193 7.03625 48.3873 6.57216 47.9488 6.19426L47.9221 6.16442L47.0254 5.30586C47.1592 5.15337 46.6406 3.45943 45.2352 2.20307C43.8298 0.946707 42.3542 0.300294 41.9359 0.757755L41.9292 0.76107ZM10.8139 0.7677C10.1915 0.737865 9.60931 2.22959 9.51569 4.10253C9.41859 5.97547 10.2652 7.54012 10.466 7.55007C10.6667 7.56001 11.6706 6.08818 11.7642 4.21524C11.8613 2.34229 11.4363 0.80085 10.8139 0.7677ZM49.1669 0.7677C48.5445 0.797535 48.1195 2.34229 48.2166 4.21524C48.3136 6.08818 49.3141 7.56001 49.5149 7.55007C49.7156 7.54012 50.5622 5.97547 50.4652 4.10253C50.3681 2.22959 49.7859 0.737865 49.1669 0.7677ZM53.8815 5.10033C53.2725 4.97436 52.4628 6.35669 52.0713 8.18985C51.6798 10.023 52.2687 11.7004 52.4661 11.7402C52.6636 11.7799 53.8848 10.4838 54.2763 8.65063C54.6678 6.81747 54.4905 5.2263 53.8815 5.10033ZM57.2879 10.4904C56.7324 10.2153 55.5914 11.3489 54.7448 13.023C53.8949 14.6971 54.0354 16.4673 54.2128 16.5568C54.3935 16.6463 55.9092 15.6982 56.7558 14.0242C57.6057 12.3501 57.8433 10.7655 57.2879 10.4904ZM49.0531 17.2761C48.6482 17.7435 49.4881 19.1126 50.927 20.3291C52.3658 21.5458 54.1325 21.8375 54.263 21.685C54.3935 21.5325 53.8279 19.8485 52.3891 18.6319C50.9503 17.4153 49.458 16.8087 49.0531 17.2761ZM6.09259 5.10033C5.4836 5.2263 5.30626 6.81747 5.69775 8.65063C6.08924 10.4838 7.31056 11.7833 7.50799 11.7402C7.70541 11.7004 8.29432 10.023 7.90282 8.18985C7.51133 6.35669 6.70158 4.97104 6.09259 5.10033ZM10.921 17.2761C10.5161 16.8087 9.02377 17.4153 7.58494 18.6319C6.14612 19.8485 5.58064 21.5325 5.71114 21.685C5.84163 21.8375 7.60837 21.5458 9.04719 20.3291C10.486 19.1126 11.3259 17.7435 10.921 17.2761ZM2.68627 10.4904C2.13081 10.7655 2.36839 12.3501 3.2183 14.0242C4.06821 15.6982 5.58398 16.6463 5.76133 16.5568C5.94201 16.4673 6.0792 14.6971 5.2293 13.023C4.37938 11.3489 3.24172 10.2153 2.68627 10.4904ZM48.8256 25.3977C48.2735 25.6795 48.5244 27.2607 49.391 28.9281C50.2543 30.5955 51.7801 31.527 51.9575 31.4376C52.1348 31.3481 52.2587 29.5745 51.392 27.9071C50.5288 26.2397 49.3777 25.1159 48.8256 25.3977ZM11.1519 25.3977C10.5998 25.1159 9.44873 26.2397 8.58543 27.9071C7.72214 29.5745 7.84259 31.3447 8.01994 31.4376C8.19728 31.527 9.72308 30.5955 10.5864 28.9281C11.4497 27.2607 11.704 25.6795 11.1519 25.3977Z" fill="url(#paint0_linear_1_38265)" stroke="url(#paint1_linear_1_38265)" stroke-width="0.203961"/>
</g>
<path d="M18.0351 26.5606V25.6072L20.5792 23.1277C20.8225 22.8834 21.0253 22.6664 21.1876 22.4766C21.3497 22.2869 21.4715 22.1031 21.5525 21.9253C21.6336 21.7473 21.6742 21.5576 21.6742 21.3561C21.6742 21.126 21.6217 20.9291 21.5167 20.7655C21.4118 20.5995 21.2675 20.4714 21.0838 20.3813C20.9001 20.2912 20.6914 20.2461 20.4576 20.2461C20.2167 20.2461 20.0055 20.2959 19.8242 20.3956C19.643 20.4927 19.5022 20.6315 19.402 20.8118C19.3042 20.992 19.2553 21.2066 19.2553 21.4556H17.9922C17.9922 20.9932 18.0984 20.5912 18.3106 20.2497C18.5229 19.9081 18.8152 19.6437 19.1873 19.4563C19.5618 19.269 19.9912 19.1753 20.4755 19.1753C20.9669 19.1753 21.3986 19.2666 21.7708 19.4492C22.1429 19.6318 22.4315 19.8821 22.6367 20.1998C22.8443 20.5177 22.948 20.8805 22.948 21.2884C22.948 21.5612 22.8955 21.8292 22.7906 22.0924C22.6857 22.3557 22.5008 22.6474 22.236 22.9676C21.9735 23.2877 21.605 23.6755 21.1303 24.1309L19.8672 25.408V25.4579H23.0589V26.5606H18.0351ZM26.448 26.6993C25.8588 26.6993 25.353 26.5512 24.9308 26.2547C24.5109 25.9558 24.1878 25.5254 23.9611 24.9633C23.7369 24.3989 23.6248 23.7194 23.6248 22.9249C23.6272 22.1304 23.7405 21.4544 23.9647 20.8971C24.1913 20.3375 24.5145 19.9105 24.9344 19.6164C25.3566 19.3224 25.8612 19.1753 26.448 19.1753C27.0348 19.1753 27.5393 19.3224 27.9616 19.6164C28.3838 19.9105 28.7071 20.3375 28.9313 20.8971C29.158 21.4568 29.2713 22.1327 29.2713 22.9249C29.2713 23.7218 29.158 24.4024 28.9313 24.9669C28.7071 25.529 28.3838 25.9582 27.9616 26.2547C27.5417 26.5512 27.0372 26.6993 26.448 26.6993ZM26.448 25.5859C26.906 25.5859 27.2675 25.3618 27.5322 24.9135C27.7994 24.4629 27.933 23.8 27.933 22.9249C27.933 22.3462 27.8721 21.86 27.7505 21.4663C27.6288 21.0727 27.4571 20.7761 27.2352 20.577C27.0133 20.3753 26.7509 20.2746 26.448 20.2746C25.9923 20.2746 25.6322 20.4999 25.3673 20.9505C25.1026 21.3987 24.969 22.0569 24.9666 22.9249C24.9642 23.5059 25.0226 23.9945 25.1419 24.3906C25.2636 24.7867 25.4354 25.0855 25.6572 25.2871C25.879 25.4863 26.1427 25.5859 26.448 25.5859ZM29.9059 26.5606V25.6072L32.45 23.1277C32.6934 22.8834 32.8961 22.6664 33.0583 22.4766C33.2206 22.2869 33.3422 22.1031 33.4233 21.9253C33.5044 21.7473 33.545 21.5576 33.545 21.3561C33.545 21.126 33.4925 20.9291 33.3875 20.7655C33.2826 20.5995 33.1382 20.4714 32.9545 20.3813C32.7709 20.2912 32.5621 20.2461 32.3283 20.2461C32.0874 20.2461 31.8763 20.2959 31.695 20.3956C31.5137 20.4927 31.373 20.6315 31.2728 20.8118C31.175 20.992 31.1261 21.2066 31.1261 21.4556H29.8629C29.8629 20.9932 29.9691 20.5912 30.1814 20.2497C30.3938 19.9081 30.686 19.6437 31.0581 19.4563C31.4326 19.269 31.862 19.1753 32.3463 19.1753C32.8377 19.1753 33.2695 19.2666 33.6416 19.4492C34.0137 19.6318 34.3024 19.8821 34.5075 20.1998C34.7151 20.5177 34.8188 20.8805 34.8188 21.2884C34.8188 21.5612 34.7664 21.8292 34.6614 22.0924C34.5564 22.3557 34.3715 22.6474 34.1067 22.9676C33.8444 23.2877 33.4758 23.6755 33.0011 24.1309L31.738 25.408V25.4579H34.9298V26.5606H29.9059ZM38.24 26.6603C37.7248 26.6603 37.2668 26.5725 36.866 26.397C36.4676 26.2215 36.1528 25.9772 35.9214 25.6641C35.69 25.3511 35.5672 24.9894 35.5528 24.5791H36.8982C36.9101 24.776 36.9757 24.9479 37.095 25.0949C37.2143 25.2396 37.3729 25.3523 37.571 25.4329C37.7689 25.5136 37.9908 25.5538 38.2365 25.5538C38.4989 25.5538 38.7315 25.5089 38.9342 25.4187C39.137 25.3262 39.2957 25.1981 39.4102 25.0345C39.5247 24.8708 39.5807 24.6823 39.5784 24.4688C39.5807 24.2482 39.5235 24.0538 39.4066 23.8854C39.2897 23.717 39.1203 23.5854 38.8985 23.4905C38.679 23.3956 38.4142 23.3483 38.1041 23.3483H37.4565V22.3308H38.1041C38.3593 22.3308 38.5824 22.2869 38.7733 22.1991C38.9664 22.1114 39.118 21.9881 39.2277 21.8292C39.3373 21.6679 39.391 21.4818 39.3886 21.2707C39.391 21.0643 39.3446 20.8853 39.2491 20.7335C39.1561 20.5793 39.0237 20.4596 38.8519 20.3742C38.6826 20.2888 38.4834 20.2461 38.2544 20.2461C38.0302 20.2461 37.8226 20.2865 37.6318 20.3671C37.4409 20.4477 37.2871 20.5628 37.1702 20.7121C37.0533 20.8592 36.9912 21.0347 36.9841 21.2386H35.7067C35.7162 20.8307 35.8343 20.4726 36.0609 20.1643C36.2899 19.8536 36.5953 19.6117 36.9769 19.4386C37.3586 19.2631 37.7868 19.1753 38.2616 19.1753C38.7505 19.1753 39.1752 19.2666 39.5354 19.4492C39.898 19.6295 40.1783 19.8725 40.3763 20.1785C40.5743 20.4844 40.6733 20.8224 40.6733 21.1924C40.6757 21.6027 40.554 21.9466 40.3082 22.2241C40.065 22.5016 39.7453 22.683 39.3493 22.7683V22.8253C39.8646 22.8965 40.2594 23.0862 40.5337 23.3944C40.8104 23.7004 40.9476 24.081 40.9453 24.5364C40.9453 24.9444 40.8283 25.3096 40.5945 25.6322C40.3631 25.9523 40.0435 26.2037 39.6356 26.3863C39.2301 26.5689 38.7648 26.6603 38.24 26.6603Z" fill="url(#paint2_linear_1_38265)"/>
<mask id="mask1_1_38265" style="mask-type:luminance" maskUnits="userSpaceOnUse" x="90" y="0" width="60" height="51">
<path d="M90.5436 0.603027H149.816V50.5426H90.5436V0.603027Z" fill="white"/>
</mask>
<g mask="url(#mask1_1_38265)">
<path fill-rule="evenodd" clip-rule="evenodd" d="M132.113 0.76107C131.695 1.21854 132.498 2.60749 133.903 3.86385C134.96 4.81193 136.222 5.23624 136.837 5.32243C137.718 5.99867 138.514 6.71471 139.234 7.46719L139.311 7.5567C138.795 7.27493 137.473 6.8672 136.001 7.0462C134.124 7.27162 132.662 7.95117 132.735 8.56444C132.809 9.1777 134.395 9.48927 136.272 9.26387C138.019 9.05505 139.361 8.09372 139.521 7.80201L140.384 8.78986C140.535 8.97549 140.679 9.16444 140.819 9.35667L141.211 9.90701C141.599 10.4771 141.954 11.0572 142.272 11.6539C141.847 11.2529 140.672 10.5236 139.203 10.318C137.329 10.0595 135.74 10.3445 135.653 10.9545C135.566 11.5644 137.019 12.2705 138.892 12.5291C140.649 12.7711 142.204 12.1744 142.416 11.9357C143.135 13.3379 143.66 14.8065 144.012 16.3082C143.667 15.7943 142.74 14.8529 141.432 14.3092C139.685 13.5866 138.076 13.4606 137.835 14.0308C137.594 14.6009 138.815 15.6452 140.562 16.3678C142.151 17.0242 143.764 16.8683 144.099 16.696C144.373 18.0021 144.517 19.3314 144.54 20.6706C144.54 22.2618 144.38 23.853 144.092 25.4044L143.827 26.3591C143.801 25.769 143.473 24.4497 142.573 23.3027C141.415 21.8209 140.074 20.9258 139.582 21.3038C139.09 21.6816 139.631 23.19 140.789 24.6717C141.88 26.064 143.419 26.7137 143.734 26.6839L142.941 29.5414C142.135 31.7259 141.087 33.8011 139.752 35.7039C139.953 35.2663 140.197 33.7879 139.722 32.2597C139.163 30.4696 138.226 29.1635 137.634 29.3458C137.039 29.5282 137.011 31.1292 137.57 32.9193C138.129 34.7094 139.467 35.8928 139.659 35.8331C139.661 35.8331 139.665 35.8299 139.665 35.8299C139.428 36.1614 139.183 36.4895 138.929 36.8111L136.778 39.1215C137.021 38.4818 137.262 37.3945 137.112 36.2144C136.878 34.3547 136.185 32.9094 135.566 32.9856C134.95 33.0618 134.639 34.6332 134.877 36.4929C135.081 38.0906 135.924 39.3437 136.286 39.6487L136.011 39.9436L132.926 42.4564C133.29 41.8796 133.752 40.8321 133.826 39.6089C133.94 37.7393 133.529 36.1911 132.906 36.1547C132.284 36.1182 131.691 37.6067 131.577 39.4763C131.48 41.0807 132.079 42.463 132.377 42.8343C131.179 43.6067 129.928 44.2332 128.609 44.7503C129.071 44.2332 129.656 43.3547 129.954 42.2674C130.446 40.4575 130.359 38.8597 129.761 38.7006C129.158 38.5414 128.275 39.8773 127.78 41.6873C127.385 43.1393 127.626 44.5216 127.834 45.042C127.599 45.1249 127.362 45.2045 127.121 45.2841L123.825 46.0464C124.384 45.6387 125.109 44.9326 125.625 43.9813C126.514 42.3271 126.796 40.7525 126.247 40.4608C125.698 40.169 124.53 41.2763 123.641 42.9304C122.908 44.2862 122.841 45.7249 122.938 46.2487L120.351 46.7393C120.291 46.7559 120.234 46.7725 120.174 46.7923C120.114 46.7725 120.056 46.7559 119.997 46.7393L117.41 46.2487C117.507 45.7249 117.44 44.2862 116.707 42.9304C115.817 41.2763 114.649 40.1724 114.1 40.4608C113.552 40.7525 113.83 42.3271 114.723 43.9813C115.235 44.9326 115.961 45.6354 116.523 46.0464L113.227 45.2841C112.987 45.2078 112.749 45.1249 112.515 45.042C112.725 44.5249 112.963 43.1393 112.568 41.6873C112.076 39.8773 111.189 38.5414 110.587 38.7006C109.985 38.8597 109.898 40.4575 110.393 42.2674C110.691 43.3581 111.276 44.2365 111.739 44.7503C110.42 44.2332 109.169 43.6067 107.97 42.8343C108.269 42.463 108.867 41.0807 108.77 39.4763C108.656 37.6067 108.061 36.1182 107.442 36.1547C106.82 36.1911 106.409 37.7393 106.522 39.6089C106.595 40.8321 107.054 41.8796 107.422 42.4564L104.337 39.9436L104.063 39.6487C104.424 39.3404 105.271 38.0873 105.471 36.4929C105.706 34.6332 105.397 33.0618 104.782 32.9856C104.166 32.9094 103.474 34.3547 103.236 36.2144C103.085 37.3945 103.326 38.4818 103.571 39.1215L101.419 36.8111C101.165 36.4895 100.917 36.1646 100.683 35.8299C100.686 35.8299 100.69 35.8331 100.69 35.8331C100.88 35.8928 102.219 34.7094 102.777 32.9193C103.336 31.1292 103.306 29.5282 102.714 29.3458C102.119 29.1635 101.185 30.4696 100.627 32.2597C100.147 33.7879 100.392 35.2663 100.596 35.7039C99.2608 33.8044 98.2137 31.7259 97.4076 29.5414L96.6143 26.6839C96.9285 26.7104 98.4711 26.064 99.5585 24.6717C100.716 23.19 101.259 21.6816 100.767 21.3038C100.275 20.9258 98.9365 21.8209 97.775 23.3027C96.8754 24.4497 96.5475 25.769 96.5209 26.3591L96.2562 25.4044C95.9685 23.853 95.8073 22.2585 95.8073 20.6673C95.8275 19.3281 95.9713 17.9954 96.2498 16.6927C96.5841 16.8651 98.1973 17.0209 99.7866 16.3645C101.533 15.6419 102.755 14.5943 102.514 14.0274C102.273 13.4573 100.663 13.5833 98.9163 14.3059C97.6046 14.8496 96.6812 15.791 96.3368 16.3049C96.6849 14.7998 97.2134 13.3347 97.9325 11.9324C98.1432 12.1711 99.7023 12.7677 101.456 12.5258C103.33 12.2672 104.779 11.5611 104.695 10.9512C104.608 10.3412 103.018 10.0562 101.145 10.3147C99.6757 10.5169 98.5014 11.2462 98.0763 11.6507C98.3942 11.0572 98.746 10.4738 99.1371 9.90364L99.5282 9.35339C99.6693 9.16444 99.8131 8.97549 99.9634 8.78654L100.827 7.79869C100.987 8.0904 102.329 9.05173 104.076 9.26059C105.953 9.48599 107.539 9.17439 107.613 8.56112C107.686 7.94786 106.224 7.27162 104.347 7.04288C102.874 6.8672 101.553 7.27493 101.038 7.55338L101.115 7.46388C101.834 6.71139 102.631 5.99536 103.51 5.31912C104.126 5.22961 105.384 4.8053 106.445 3.86054C107.85 2.60418 108.65 1.21522 108.235 0.757755C107.816 0.300294 106.342 0.946707 104.936 2.20307C103.534 3.45612 103.012 5.15337 103.146 5.30586L102.249 6.16442L102.222 6.19426C101.784 6.57216 101.252 7.03957 100.757 7.58985C100.265 8.13681 99.6959 8.91583 99.1875 9.66504L99.0437 9.82742C97.534 11.8296 96.4733 14.2263 96.0354 16.6894C95.7606 18.2374 95.6342 19.8187 95.6507 21.3966C95.5701 20.833 95.0919 19.527 94.0376 18.4628C92.713 17.127 91.2771 16.391 90.8321 16.8253C90.3871 17.2562 91.1031 18.6916 92.4318 20.0275C93.7563 21.3634 95.4931 21.8043 95.6369 21.6651C95.6434 21.6584 95.6507 21.6452 95.6534 21.6286C95.6873 23.1667 95.8577 24.7048 96.1692 26.2099C95.8815 25.6132 95.1817 24.612 94.0843 23.8861C92.5114 22.8452 90.9559 22.4143 90.6112 22.9248C90.2666 23.4386 91.2604 24.6983 92.833 25.7391C94.3353 26.7369 96.0391 26.8563 96.2827 26.7203C96.3432 26.9823 96.4064 27.2441 96.4769 27.5027L97.8153 31.169C97.4745 30.6519 96.5575 29.7038 95.2559 29.1469C93.5154 28.4077 91.906 28.2685 91.6623 28.8353C91.4177 29.4021 92.6287 30.4597 94.3692 31.1989C96.0519 31.9149 97.7722 31.7061 97.949 31.527L99.8864 35.2895C99.8901 35.2928 99.8901 35.2961 99.8937 35.2995C99.3514 34.8651 98.4647 34.3348 97.3875 34.0862C95.5435 33.6585 93.9377 33.7978 93.793 34.3978C93.6528 34.9977 95.0315 35.8299 96.8718 36.2574C98.4977 36.6354 100.017 36.2542 100.382 36.0254C101.238 37.2453 102.216 38.3857 103.263 39.4498C102.684 39.0884 101.617 38.6309 100.368 38.5646C98.4776 38.4619 96.9185 38.8763 96.8855 39.4928C96.8516 40.1094 98.3539 40.6895 100.245 40.7956C102.035 40.8951 103.551 40.1525 103.714 39.9038C103.825 40.0133 103.935 40.1193 104.049 40.2254L107.051 42.7481C106.398 42.5128 105.318 42.2906 104.143 42.4398C102.265 42.6818 100.81 43.3747 100.89 43.9846C100.971 44.5946 102.557 44.8962 104.434 44.6542C106.134 44.4354 107.445 43.5073 107.656 43.1857C108.864 43.9945 110.146 44.6642 111.478 45.2211C110.788 45.1315 109.721 45.1448 108.644 45.5128C106.856 46.126 105.571 47.094 105.773 47.6774C105.976 48.2608 107.589 48.2343 109.379 47.6211C111.023 47.0575 112.124 45.8608 112.24 45.5261C113.177 45.8841 114.141 46.189 115.122 46.4476C115.436 46.5305 115.75 46.6001 116.068 46.6631C115.406 46.7757 114.559 47.031 113.76 47.5283C112.157 48.526 111.126 49.7559 111.458 50.2763C111.788 50.7968 113.355 50.4122 114.958 49.4178C116.282 48.5923 117.066 47.3658 117.236 46.8719C117.852 46.978 118.461 47.0907 119.056 47.2498C118.678 47.4652 118.327 47.7272 118.036 48.0354L117.46 48.7912C117.343 49.0399 117.45 49.3349 117.701 49.4542C117.952 49.5703 118.25 49.4642 118.37 49.2155C118.582 48.7846 118.802 48.4067 119.224 48.1316C119.532 47.9327 119.849 47.767 120.177 47.6277C120.505 47.767 120.823 47.9327 121.131 48.1316C121.552 48.4034 121.773 48.7813 121.984 49.2155C122.101 49.4642 122.402 49.5703 122.653 49.4542C122.904 49.3382 123.012 49.0399 122.894 48.7912L122.319 48.0354C122.024 47.7272 121.676 47.4652 121.299 47.2498C121.894 47.0907 122.506 46.978 123.119 46.8719C123.289 47.3658 124.069 48.5923 125.397 49.4178C127 50.4156 128.566 50.8001 128.897 50.2763C129.229 49.7559 128.198 48.5228 126.595 47.5283C125.795 47.031 124.945 46.7725 124.287 46.6631C124.605 46.6001 124.922 46.5305 125.233 46.4476C126.214 46.1857 127.174 45.8808 128.114 45.5261C128.231 45.8642 129.332 47.0609 130.976 47.6211C132.762 48.2343 134.379 48.2576 134.582 47.6774C134.786 47.094 133.501 46.126 131.711 45.5128C130.634 45.1415 129.567 45.1315 128.877 45.2211C130.209 44.6642 131.49 43.9912 132.699 43.1857C132.909 43.5039 134.221 44.4321 135.92 44.6542C137.798 44.8962 139.384 44.5979 139.464 43.9846C139.544 43.3747 138.089 42.6818 136.212 42.4398C135.037 42.2874 133.956 42.5094 133.304 42.7481L136.306 40.2254C136.416 40.1193 136.529 40.0099 136.64 39.9038C136.801 40.1525 138.317 40.8918 140.11 40.7956C142.001 40.6929 143.503 40.1094 143.469 39.4928C143.436 38.8763 141.876 38.4619 139.987 38.5646C138.742 38.6343 137.674 39.0884 137.092 39.4498C138.136 38.3857 139.116 37.242 139.973 36.0254C140.337 36.2542 141.857 36.6354 143.483 36.2574C145.327 35.8299 146.706 34.9977 146.561 34.3978C146.421 33.7978 144.811 33.6585 142.967 34.0862C141.886 34.3381 141 34.8651 140.461 35.2995C140.465 35.2961 140.465 35.2928 140.468 35.2895L142.406 31.527C142.583 31.7061 144.303 31.9149 145.986 31.1989C147.726 30.4597 148.937 29.4021 148.693 28.8353C148.449 28.2685 146.839 28.4077 145.099 29.1469C143.794 29.7005 142.88 30.6519 142.54 31.169L143.878 27.5027C143.948 27.2441 144.012 26.9823 144.072 26.7203C144.316 26.8563 146.02 26.7369 147.522 25.7391C149.095 24.6983 150.089 23.4353 149.743 22.9248C149.399 22.4109 147.842 22.8419 146.271 23.8861C145.173 24.612 144.47 25.6165 144.186 26.2099C144.5 24.7048 144.671 23.1667 144.7 21.6286C144.704 21.6452 144.711 21.6584 144.718 21.6651C144.862 21.8043 146.598 21.3634 147.923 20.0275C149.249 18.6916 149.964 17.2562 149.522 16.8253C149.077 16.3943 147.642 17.127 146.317 18.4628C145.263 19.5236 144.785 20.833 144.704 21.3966C144.721 19.8187 144.594 18.2374 144.319 16.6894C143.884 14.2263 142.824 11.8296 141.311 9.82742L141.167 9.66504C140.659 8.91583 140.09 8.14013 139.598 7.58985C139.103 7.03625 138.571 6.57216 138.133 6.19426L138.106 6.16442L137.209 5.30586C137.343 5.15337 136.824 3.45943 135.419 2.20307C134.013 0.946707 132.537 0.300294 132.12 0.757755L132.113 0.76107ZM100.998 0.7677C100.376 0.737865 99.793 2.22959 99.6995 4.10253C99.6024 5.97547 100.449 7.54012 100.649 7.55007C100.85 7.56001 101.854 6.08818 101.947 4.21524C102.045 2.34229 101.62 0.80085 100.998 0.7677ZM139.351 0.7677C138.728 0.797535 138.303 2.34229 138.4 4.21524C138.497 6.08818 139.497 7.56001 139.699 7.55007C139.9 7.54012 140.746 5.97547 140.649 4.10253C140.552 2.22959 139.969 0.737865 139.351 0.7677ZM144.065 5.10033C143.456 4.97436 142.647 6.35669 142.255 8.18985C141.864 10.023 142.453 11.7004 142.649 11.7402C142.847 11.7799 144.068 10.4838 144.46 8.65063C144.852 6.81747 144.674 5.2263 144.065 5.10033ZM147.471 10.4904C146.916 10.2153 145.775 11.3489 144.929 13.023C144.078 14.6971 144.219 16.4673 144.396 16.5568C144.577 16.6463 146.093 15.6982 146.939 14.0242C147.789 12.3501 148.027 10.7655 147.471 10.4904ZM139.236 17.2761C138.831 17.7435 139.671 19.1126 141.111 20.3291C142.55 21.5458 144.316 21.8375 144.447 21.685C144.577 21.5325 144.012 19.8485 142.573 18.6319C141.134 17.4153 139.641 16.8087 139.236 17.2761ZM96.2763 5.10033C95.6672 5.2263 95.4895 6.81747 95.8815 8.65063C96.2727 10.4838 97.4937 11.7833 97.6916 11.7402C97.8895 11.7004 98.4776 10.023 98.0864 8.18985C97.6953 6.35669 96.8855 4.97104 96.2763 5.10033ZM101.105 17.2761C100.7 16.8087 99.2076 17.4153 97.7685 18.6319C96.3295 19.8485 95.7643 21.5325 95.8943 21.685C96.0253 21.8375 97.7924 21.5458 99.2305 20.3291C100.67 19.1126 101.51 17.7435 101.105 17.2761ZM92.8696 10.4904C92.3145 10.7655 92.5518 12.3501 93.4018 14.0242C94.2519 15.6982 95.7679 16.6463 95.9447 16.5568C96.1252 16.4673 96.2626 14.6971 95.4125 13.023C94.5634 11.3489 93.4256 10.2153 92.8696 10.4904ZM139.009 25.3977C138.457 25.6795 138.708 27.2607 139.574 28.9281C140.438 30.5955 141.963 31.527 142.141 31.4376C142.319 31.3481 142.442 29.5745 141.576 27.9071C140.712 26.2397 139.562 25.1159 139.009 25.3977ZM101.336 25.3977C100.783 25.1159 99.6327 26.2397 98.7689 27.9071C97.906 29.5745 98.0259 31.3447 98.2037 31.4376C98.3805 31.527 99.9066 30.5955 100.77 28.9281C101.633 27.2607 101.888 25.6795 101.336 25.3977Z" fill="url(#paint3_linear_1_38265)" stroke="url(#paint4_linear_1_38265)" stroke-width="0.203961"/>
</g>
<path d="M108.37 26.5606V25.6072L110.915 23.1277C111.158 22.8834 111.361 22.6664 111.523 22.4766C111.685 22.2869 111.807 22.1031 111.888 21.9253C111.969 21.7473 112.01 21.5576 112.01 21.3561C112.01 21.126 111.957 20.9291 111.852 20.7655C111.748 20.5995 111.603 20.4714 111.42 20.3813C111.236 20.2912 111.027 20.2461 110.793 20.2461C110.552 20.2461 110.341 20.2959 110.16 20.3956C109.979 20.4927 109.838 20.6315 109.738 20.8118C109.64 20.992 109.59 21.2066 109.59 21.4556H108.328C108.328 20.9932 108.433 20.5912 108.646 20.2497C108.859 19.9081 109.151 19.6437 109.523 19.4563C109.897 19.269 110.327 19.1753 110.811 19.1753C111.302 19.1753 111.734 19.2666 112.107 19.4492C112.479 19.6318 112.767 19.8821 112.972 20.1998C113.179 20.5177 113.284 20.8805 113.284 21.2884C113.284 21.5612 113.231 21.8292 113.126 22.0924C113.021 22.3557 112.836 22.6474 112.571 22.9676C112.309 23.2877 111.941 23.6755 111.466 24.1309L110.202 25.408V25.4579H113.395V26.5606H108.37ZM116.783 26.6993C116.194 26.6993 115.688 26.5512 115.266 26.2547C114.847 25.9558 114.523 25.5254 114.297 24.9633C114.073 24.3989 113.96 23.7194 113.96 22.9249C113.963 22.1304 114.076 21.4544 114.301 20.8971C114.527 20.3375 114.85 19.9105 115.27 19.6164C115.692 19.3224 116.197 19.1753 116.783 19.1753C117.37 19.1753 117.875 19.3224 118.297 19.6164C118.72 19.9105 119.043 20.3375 119.266 20.8971C119.494 21.4568 119.606 22.1327 119.606 22.9249C119.606 23.7218 119.494 24.4024 119.266 24.9669C119.043 25.529 118.72 25.9582 118.297 26.2547C117.877 26.5512 117.373 26.6993 116.783 26.6993ZM116.783 25.5859C117.241 25.5859 117.603 25.3618 117.868 24.9135C118.135 24.4629 118.269 23.8 118.269 22.9249C118.269 22.3462 118.208 21.86 118.086 21.4663C117.965 21.0727 117.793 20.7761 117.571 20.577C117.349 20.3753 117.086 20.2746 116.783 20.2746C116.328 20.2746 115.968 20.4999 115.703 20.9505C115.438 21.3987 115.305 22.0569 115.302 22.9249C115.3 23.5059 115.358 23.9945 115.478 24.3906C115.599 24.7867 115.771 25.0855 115.993 25.2871C116.214 25.4863 116.478 25.5859 116.783 25.5859ZM120.241 26.5606V25.6072L122.786 23.1277C123.029 22.8834 123.232 22.6664 123.394 22.4766C123.556 22.2869 123.678 22.1031 123.759 21.9253C123.84 21.7473 123.88 21.5576 123.88 21.3561C123.88 21.126 123.828 20.9291 123.723 20.7655C123.618 20.5995 123.474 20.4714 123.29 20.3813C123.106 20.2912 122.898 20.2461 122.664 20.2461C122.423 20.2461 122.211 20.2959 122.03 20.3956C121.85 20.4927 121.709 20.6315 121.609 20.8118C121.511 20.992 121.461 21.2066 121.461 21.4556H120.198C120.198 20.9932 120.304 20.5912 120.517 20.2497C120.729 19.9081 121.022 19.6437 121.393 19.4563C121.768 19.269 122.198 19.1753 122.681 19.1753C123.173 19.1753 123.605 19.2666 123.977 19.4492C124.349 19.6318 124.638 19.8821 124.843 20.1998C125.05 20.5177 125.155 20.8805 125.155 21.2884C125.155 21.5612 125.102 21.8292 124.997 22.0924C124.892 22.3557 124.707 22.6474 124.442 22.9676C124.18 23.2877 123.811 23.6755 123.336 24.1309L122.073 25.408V25.4579H125.266V26.5606H120.241ZM125.945 26.5606V25.6072L128.49 23.1277C128.733 22.8834 128.936 22.6664 129.098 22.4766C129.26 22.2869 129.382 22.1031 129.463 21.9253C129.544 21.7473 129.585 21.5576 129.585 21.3561C129.585 21.126 129.532 20.9291 129.427 20.7655C129.323 20.5995 129.178 20.4714 128.994 20.3813C128.811 20.2912 128.602 20.2461 128.368 20.2461C128.127 20.2461 127.916 20.2959 127.734 20.3956C127.554 20.4927 127.413 20.6315 127.313 20.8118C127.215 20.992 127.165 21.2066 127.165 21.4556H125.902C125.902 20.9932 126.008 20.5912 126.221 20.2497C126.433 19.9081 126.726 19.6437 127.098 19.4563C127.472 19.269 127.902 19.1753 128.386 19.1753C128.877 19.1753 129.309 19.2666 129.681 19.4492C130.054 19.6318 130.342 19.8821 130.547 20.1998C130.754 20.5177 130.859 20.8805 130.859 21.2884C130.859 21.5612 130.806 21.8292 130.701 22.0924C130.596 22.3557 130.411 22.6474 130.146 22.9676C129.884 23.2877 129.515 23.6755 129.04 24.1309L127.777 25.408V25.4579H130.97V26.5606H125.945Z" fill="url(#paint5_linear_1_38265)"/>
<mask id="mask2_1_38265" style="mask-type:luminance" maskUnits="userSpaceOnUse" x="180" y="0" width="60" height="51">
<path d="M180.723 0.603027H239.996V50.5426H180.723V0.603027Z" fill="white"/>
</mask>
<g mask="url(#mask2_1_38265)">
<path fill-rule="evenodd" clip-rule="evenodd" d="M222.296 0.76107C221.878 1.21854 222.681 2.60749 224.086 3.86385C225.143 4.81193 226.405 5.23624 227.021 5.32243C227.901 5.99867 228.698 6.71471 229.417 7.46719L229.494 7.5567C228.978 7.27493 227.657 6.8672 226.184 7.0462C224.307 7.27162 222.845 7.95117 222.918 8.56444C222.993 9.1777 224.578 9.48927 226.455 9.26387C228.202 9.05505 229.544 8.09372 229.704 7.80201L230.568 8.78986C230.718 8.97549 230.862 9.16444 231.002 9.35667L231.394 9.90701C231.783 10.4771 232.137 11.0572 232.455 11.6539C232.03 11.2529 230.856 10.5236 229.387 10.318C227.513 10.0595 225.923 10.3445 225.836 10.9545C225.749 11.5644 227.202 12.2705 229.075 12.5291C230.832 12.7711 232.388 12.1744 232.599 11.9357C233.318 13.3379 233.844 14.8065 234.195 16.3082C233.85 15.7943 232.923 14.8529 231.615 14.3092C229.868 13.5866 228.259 13.4606 228.018 14.0308C227.777 14.6009 228.998 15.6452 230.745 16.3678C232.334 17.0242 233.947 16.8683 234.282 16.696C234.557 18.0021 234.7 19.3314 234.723 20.6706C234.723 22.2618 234.563 23.853 234.275 25.4044L234.011 26.3591C233.984 25.769 233.656 24.4497 232.756 23.3027C231.599 21.8209 230.257 20.9258 229.765 21.3038C229.273 21.6816 229.815 23.19 230.973 24.6717C232.063 26.064 233.603 26.7137 233.917 26.6839L233.124 29.5414C232.318 31.7259 231.271 33.8011 229.935 35.7039C230.136 35.2663 230.38 33.7879 229.905 32.2597C229.346 30.4696 228.409 29.1635 227.817 29.3458C227.222 29.5282 227.195 31.1292 227.754 32.9193C228.313 34.7094 229.651 35.8928 229.842 35.8331C229.845 35.8331 229.848 35.8299 229.848 35.8299C229.611 36.1614 229.366 36.4895 229.113 36.8111L226.961 39.1215C227.205 38.4818 227.445 37.3945 227.295 36.2144C227.061 34.3547 226.368 32.9094 225.749 32.9856C225.133 33.0618 224.823 34.6332 225.06 36.4929C225.264 38.0906 226.107 39.3437 226.469 39.6487L226.194 39.9436L223.109 42.4564C223.474 41.8796 223.936 40.8321 224.009 39.6089C224.123 37.7393 223.712 36.1911 223.089 36.1547C222.467 36.1182 221.875 37.6067 221.761 39.4763C221.663 41.0807 222.263 42.463 222.56 42.8343C221.363 43.6067 220.111 44.2332 218.793 44.7503C219.254 44.2332 219.841 43.3547 220.138 42.2674C220.63 40.4575 220.543 38.8597 219.944 38.7006C219.341 38.5414 218.458 39.8773 217.963 41.6873C217.568 43.1393 217.809 44.5216 218.017 45.042C217.782 45.1249 217.545 45.2045 217.304 45.2841L214.008 46.0464C214.567 45.6387 215.292 44.9326 215.808 43.9813C216.699 42.3271 216.979 40.7525 216.43 40.4608C215.881 40.169 214.714 41.2763 213.824 42.9304C213.091 44.2862 213.024 45.7249 213.121 46.2487L210.535 46.7393C210.474 46.7559 210.417 46.7725 210.358 46.7923C210.297 46.7725 210.241 46.7559 210.18 46.7393L207.593 46.2487C207.69 45.7249 207.623 44.2862 206.891 42.9304C206.001 41.2763 204.833 40.1724 204.285 40.4608C203.736 40.7525 204.013 42.3271 204.907 43.9813C205.419 44.9326 206.145 45.6354 206.707 46.0464L203.411 45.2841C203.17 45.2078 202.932 45.1249 202.698 45.042C202.909 44.5249 203.147 43.1393 202.752 41.6873C202.26 39.8773 201.373 38.5414 200.771 38.7006C200.169 38.8597 200.082 40.4575 200.576 42.2674C200.874 43.3581 201.46 44.2365 201.922 44.7503C200.604 44.2332 199.352 43.6067 198.154 42.8343C198.452 42.463 199.051 41.0807 198.954 39.4763C198.841 37.6067 198.244 36.1182 197.626 36.1547C197.003 36.1911 196.592 37.7393 196.705 39.6089C196.779 40.8321 197.238 41.8796 197.606 42.4564L194.521 39.9436L194.246 39.6487C194.608 39.3404 195.454 38.0873 195.655 36.4929C195.889 34.6332 195.581 33.0618 194.966 32.9856C194.349 32.9094 193.657 34.3547 193.42 36.2144C193.269 37.3945 193.51 38.4818 193.754 39.1215L191.602 36.8111C191.348 36.4895 191.101 36.1646 190.867 35.8299C190.869 35.8299 190.873 35.8331 190.873 35.8331C191.063 35.8928 192.402 34.7094 192.961 32.9193C193.52 31.1292 193.49 29.5282 192.897 29.3458C192.302 29.1635 191.368 30.4696 190.81 32.2597C190.331 33.7879 190.575 35.2663 190.78 35.7039C189.444 33.8044 188.397 31.7259 187.591 29.5414L186.798 26.6839C187.112 26.7104 188.654 26.064 189.742 24.6717C190.9 23.19 191.442 21.6816 190.95 21.3038C190.458 20.9258 189.12 21.8209 187.959 23.3027C187.059 24.4497 186.731 25.769 186.704 26.3591L186.439 25.4044C186.152 23.853 185.991 22.2585 185.991 20.6673C186.012 19.3281 186.155 17.9954 186.433 16.6927C186.767 16.8651 188.38 17.0209 189.97 16.3645C191.717 15.6419 192.938 14.5943 192.697 14.0274C192.456 13.4573 190.846 13.5833 189.1 14.3059C187.788 14.8496 186.864 15.791 186.52 16.3049C186.868 14.7998 187.397 13.3347 188.116 11.9324C188.326 12.1711 189.886 12.7677 191.64 12.5258C193.513 12.2672 194.962 11.5611 194.879 10.9512C194.792 10.3412 193.202 10.0562 191.328 10.3147C189.859 10.5169 188.685 11.2462 188.259 11.6507C188.577 11.0572 188.929 10.4738 189.32 9.90364L189.712 9.35339C189.852 9.16444 189.996 8.97549 190.147 8.78654L191.01 7.79869C191.171 8.0904 192.513 9.05173 194.259 9.26059C196.136 9.48599 197.722 9.17439 197.796 8.56112C197.87 7.94786 196.408 7.27162 194.531 7.04288C193.058 6.8672 191.737 7.27493 191.221 7.55338L191.298 7.46388C192.017 6.71139 192.814 5.99536 193.693 5.31912C194.31 5.22961 195.568 4.8053 196.628 3.86054C198.034 2.60418 198.833 1.21522 198.418 0.757755C198.001 0.300294 196.525 0.946707 195.12 2.20307C193.717 3.45612 193.195 5.15337 193.329 5.30586L192.432 6.16442L192.405 6.19426C191.968 6.57216 191.435 7.03957 190.94 7.58985C190.448 8.13681 189.879 8.91583 189.371 9.66504L189.227 9.82742C187.718 11.8296 186.657 14.2263 186.219 16.6894C185.945 18.2374 185.817 19.8187 185.834 21.3966C185.753 20.833 185.275 19.527 184.221 18.4628C182.896 17.127 181.461 16.391 181.016 16.8253C180.57 17.2562 181.287 18.6916 182.615 20.0275C183.94 21.3634 185.676 21.8043 185.82 21.6651C185.827 21.6584 185.834 21.6452 185.838 21.6286C185.87 23.1667 186.041 24.7048 186.352 26.2099C186.065 25.6132 185.366 24.612 184.267 23.8861C182.696 22.8452 181.139 22.4143 180.795 22.9248C180.45 23.4386 181.444 24.6983 183.016 25.7391C184.518 26.7369 186.222 26.8563 186.466 26.7203C186.526 26.9823 186.59 27.2441 186.66 27.5027L187.998 31.169C187.658 30.6519 186.741 29.7038 185.439 29.1469C183.699 28.4077 182.089 28.2685 181.845 28.8353C181.601 29.4021 182.813 30.4597 184.552 31.1989C186.235 31.9149 187.955 31.7061 188.132 31.527L190.07 35.2895C190.073 35.2928 190.073 35.2961 190.077 35.2995C189.535 34.8651 188.648 34.3348 187.571 34.0862C185.727 33.6585 184.121 33.7978 183.977 34.3978C183.836 34.9977 185.215 35.8299 187.055 36.2574C188.682 36.6354 190.201 36.2542 190.565 36.0254C191.422 37.2453 192.399 38.3857 193.446 39.4498C192.867 39.0884 191.8 38.6309 190.551 38.5646C188.662 38.4619 187.102 38.8763 187.069 39.4928C187.035 40.1094 188.537 40.6895 190.428 40.7956C192.219 40.8951 193.734 40.1525 193.898 39.9038C194.009 40.0133 194.118 40.1193 194.233 40.2254L197.234 42.7481C196.582 42.5128 195.501 42.2906 194.326 42.4398C192.449 42.6818 190.994 43.3747 191.074 43.9846C191.154 44.5946 192.74 44.8962 194.618 44.6542C196.317 44.4354 197.629 43.5073 197.839 43.1857C199.048 43.9945 200.329 44.6642 201.661 45.2211C200.971 45.1315 199.904 45.1448 198.827 45.5128C197.04 46.126 195.755 47.094 195.956 47.6774C196.16 48.2608 197.772 48.2343 199.563 47.6211C201.206 47.0575 202.307 45.8608 202.424 45.5261C203.36 45.8841 204.324 46.189 205.305 46.4476C205.619 46.5305 205.933 46.6001 206.252 46.6631C205.589 46.7757 204.743 47.031 203.943 47.5283C202.34 48.526 201.309 49.7559 201.641 50.2763C201.972 50.7968 203.538 50.4122 205.141 49.4178C206.466 48.5923 207.249 47.3658 207.419 46.8719C208.035 46.978 208.644 47.0907 209.239 47.2498C208.862 47.4652 208.51 47.7272 208.219 48.0354L207.644 48.7912C207.526 49.0399 207.634 49.3349 207.885 49.4542C208.136 49.5703 208.433 49.4642 208.554 49.2155C208.765 48.7846 208.986 48.4067 209.407 48.1316C209.715 47.9327 210.033 47.767 210.361 47.6277C210.688 47.767 211.006 47.9327 211.314 48.1316C211.736 48.4034 211.957 48.7813 212.168 49.2155C212.285 49.4642 212.586 49.5703 212.837 49.4542C213.088 49.3382 213.195 49.0399 213.078 48.7912L212.502 48.0354C212.208 47.7272 211.86 47.4652 211.482 47.2498C212.077 47.0907 212.69 46.978 213.302 46.8719C213.472 47.3658 214.252 48.5923 215.581 49.4178C217.183 50.4156 218.75 50.8001 219.08 50.2763C219.412 49.7559 218.381 48.5228 216.778 47.5283C215.979 47.031 215.129 46.7725 214.47 46.6631C214.788 46.6001 215.106 46.5305 215.417 46.4476C216.397 46.1857 217.357 45.8808 218.298 45.5261C218.415 45.8642 219.515 47.0609 221.159 47.6211C222.945 48.2343 224.562 48.2576 224.766 47.6774C224.969 47.094 223.685 46.126 221.894 45.5128C220.817 45.1415 219.75 45.1315 219.061 45.2211C220.392 44.6642 221.674 43.9912 222.882 43.1857C223.092 43.5039 224.404 44.4321 226.104 44.6542C227.981 44.8962 229.567 44.5979 229.648 43.9846C229.728 43.3747 228.273 42.6818 226.395 42.4398C225.22 42.2874 224.139 42.5094 223.487 42.7481L226.489 40.2254C226.599 40.1193 226.714 40.0099 226.823 39.9038C226.984 40.1525 228.5 40.8918 230.293 40.7956C232.184 40.6929 233.686 40.1094 233.652 39.4928C233.619 38.8763 232.06 38.4619 230.17 38.5646C228.925 38.6343 227.858 39.0884 227.275 39.4498C228.319 38.3857 229.299 37.242 230.156 36.0254C230.521 36.2542 232.04 36.6354 233.666 36.2574C235.51 35.8299 236.889 34.9977 236.745 34.3978C236.604 33.7978 234.994 33.6585 233.151 34.0862C232.07 34.3381 231.184 34.8651 230.645 35.2995C230.648 35.2961 230.648 35.2928 230.652 35.2895L232.589 31.527C232.766 31.7061 234.486 31.9149 236.169 31.1989C237.909 30.4597 239.12 29.4021 238.877 28.8353C238.632 28.2685 237.023 28.4077 235.282 29.1469C233.978 29.7005 233.064 30.6519 232.723 31.169L234.061 27.5027C234.132 27.2441 234.195 26.9823 234.255 26.7203C234.5 26.8563 236.203 26.7369 237.705 25.7391C239.278 24.6983 240.272 23.4353 239.926 22.9248C239.582 22.4109 238.027 22.8419 236.454 23.8861C235.356 24.612 234.654 25.6165 234.369 26.2099C234.684 24.7048 234.854 23.1667 234.885 21.6286C234.887 21.6452 234.895 21.6584 234.901 21.6651C235.045 21.8043 236.782 21.3634 238.106 20.0275C239.432 18.6916 240.148 17.2562 239.706 16.8253C239.261 16.3943 237.826 17.127 236.5 18.4628C235.446 19.5236 234.968 20.833 234.887 21.3966C234.905 19.8187 234.777 18.2374 234.503 16.6894C234.067 14.2263 233.007 11.8296 231.494 9.82742L231.35 9.66504C230.842 8.91583 230.273 8.14013 229.781 7.58985C229.287 7.03625 228.754 6.57216 228.316 6.19426L228.289 6.16442L227.392 5.30586C227.526 5.15337 227.008 3.45943 225.602 2.20307C224.197 0.946707 222.721 0.300294 222.303 0.757755L222.296 0.76107ZM191.181 0.7677C190.559 0.737865 189.976 2.22959 189.883 4.10253C189.786 5.97547 190.632 7.54012 190.833 7.55007C191.033 7.56001 192.037 6.08818 192.132 4.21524C192.229 2.34229 191.804 0.80085 191.181 0.7677ZM229.534 0.7677C228.911 0.797535 228.486 2.34229 228.583 4.21524C228.68 6.08818 229.681 7.56001 229.882 7.55007C230.083 7.54012 230.929 5.97547 230.832 4.10253C230.735 2.22959 230.153 0.737865 229.534 0.7677ZM234.249 5.10033C233.64 4.97436 232.83 6.35669 232.438 8.18985C232.047 10.023 232.636 11.7004 232.834 11.7402C233.03 11.7799 234.252 10.4838 234.644 8.65063C235.035 6.81747 234.857 5.2263 234.249 5.10033ZM237.655 10.4904C237.099 10.2153 235.958 11.3489 235.112 13.023C234.262 14.6971 234.403 16.4673 234.58 16.5568C234.761 16.6463 236.276 15.6982 237.122 14.0242C237.972 12.3501 238.211 10.7655 237.655 10.4904ZM229.42 17.2761C229.016 17.7435 229.855 19.1126 231.294 20.3291C232.733 21.5458 234.5 21.8375 234.63 21.685C234.761 21.5325 234.195 19.8485 232.756 18.6319C231.318 17.4153 229.825 16.8087 229.42 17.2761ZM186.459 5.10033C185.85 5.2263 185.674 6.81747 186.065 8.65063C186.456 10.4838 187.678 11.7833 187.875 11.7402C188.073 11.7004 188.662 10.023 188.27 8.18985C187.878 6.35669 187.069 4.97104 186.459 5.10033ZM191.288 17.2761C190.883 16.8087 189.391 17.4153 187.952 18.6319C186.514 19.8485 185.947 21.5325 186.078 21.685C186.209 21.8375 187.976 21.5458 189.415 20.3291C190.853 19.1126 191.693 17.7435 191.288 17.2761ZM183.054 10.4904C182.498 10.7655 182.735 12.3501 183.585 14.0242C184.435 15.6982 185.951 16.6463 186.128 16.5568C186.309 16.4673 186.446 14.6971 185.597 13.023C184.747 11.3489 183.609 10.2153 183.054 10.4904ZM229.192 25.3977C228.641 25.6795 228.891 27.2607 229.758 28.9281C230.621 30.5955 232.147 31.527 232.324 31.4376C232.502 31.3481 232.626 29.5745 231.759 27.9071C230.896 26.2397 229.745 25.1159 229.192 25.3977ZM191.519 25.3977C190.966 25.1159 189.816 26.2397 188.952 27.9071C188.089 29.5745 188.21 31.3447 188.387 31.4376C188.565 31.527 190.09 30.5955 190.954 28.9281C191.816 27.2607 192.071 25.6795 191.519 25.3977Z" fill="url(#paint6_linear_1_38265)" stroke="url(#paint7_linear_1_38265)" stroke-width="0.203961"/>
</g>
<path d="M199.072 27.4718V26.5183L201.616 24.0388C201.86 23.7945 202.062 23.5776 202.224 23.3878C202.387 23.1981 202.508 23.0143 202.59 22.8364C202.671 22.6585 202.712 22.4688 202.712 22.2672C202.712 22.0372 202.659 21.8403 202.554 21.6766C202.449 21.5106 202.305 21.3826 202.121 21.2924C201.938 21.2023 201.729 21.1572 201.495 21.1572C201.254 21.1572 201.043 21.2071 200.861 21.3067C200.68 21.4039 200.54 21.5427 200.439 21.7229C200.341 21.9031 200.293 22.1178 200.293 22.3668H199.029C199.029 21.9043 199.136 21.5023 199.348 21.1608C199.561 20.8193 199.853 20.5548 200.225 20.3675C200.599 20.1801 201.028 20.0864 201.513 20.0864C202.005 20.0864 202.436 20.1778 202.808 20.3604C203.18 20.543 203.468 20.7932 203.674 21.111C203.882 21.4288 203.985 21.7916 203.985 22.1996C203.985 22.4723 203.933 22.7403 203.827 23.0035C203.723 23.2668 203.538 23.5585 203.273 23.8787C203.01 24.1988 202.642 24.5866 202.168 25.042L200.904 26.3192V26.369H204.096V27.4718H199.072ZM207.485 27.6105C206.896 27.6105 206.391 27.4623 205.968 27.1659C205.548 26.867 205.225 26.4366 204.998 25.8745C204.774 25.31 204.662 24.6305 204.662 23.836C204.665 23.0415 204.777 22.3656 205.002 21.8082C205.229 21.2486 205.551 20.8216 205.972 20.5276C206.394 20.2335 206.898 20.0864 207.485 20.0864C208.072 20.0864 208.576 20.2335 208.998 20.5276C209.421 20.8216 209.744 21.2486 209.969 21.8082C210.195 22.3679 210.308 23.0439 210.308 23.836C210.308 24.6329 210.195 25.3136 209.969 25.878C209.744 26.4401 209.421 26.8693 208.998 27.1659C208.579 27.4623 208.074 27.6105 207.485 27.6105ZM207.485 26.497C207.943 26.497 208.305 26.2729 208.57 25.8247C208.836 25.374 208.97 24.7111 208.97 23.836C208.97 23.2573 208.91 22.7711 208.788 22.3774C208.666 21.9838 208.495 21.6873 208.272 21.4881C208.05 21.2865 207.788 21.1857 207.485 21.1857C207.03 21.1857 206.669 21.4111 206.404 21.8616C206.14 22.3098 206.006 22.968 206.004 23.836C206.001 24.4171 206.06 24.9057 206.179 25.3017C206.301 25.6978 206.473 25.9966 206.695 26.1982C206.916 26.3974 207.18 26.497 207.485 26.497ZM210.943 27.4718V26.5183L213.487 24.0388C213.731 23.7945 213.933 23.5776 214.095 23.3878C214.257 23.1981 214.379 23.0143 214.461 22.8364C214.541 22.6585 214.583 22.4688 214.583 22.2672C214.583 22.0372 214.529 21.8403 214.425 21.6766C214.32 21.5106 214.176 21.3826 213.992 21.2924C213.809 21.2023 213.6 21.1572 213.365 21.1572C213.124 21.1572 212.914 21.2071 212.732 21.3067C212.551 21.4039 212.411 21.5427 212.31 21.7229C212.212 21.9031 212.163 22.1178 212.163 22.3668H210.9C210.9 21.9043 211.006 21.5023 211.219 21.1608C211.431 20.8193 211.724 20.5548 212.096 20.3675C212.47 20.1801 212.899 20.0864 213.384 20.0864C213.875 20.0864 214.307 20.1778 214.679 20.3604C215.051 20.543 215.339 20.7932 215.544 21.111C215.752 21.4288 215.856 21.7916 215.856 22.1996C215.856 22.4723 215.804 22.7403 215.698 23.0035C215.594 23.2668 215.409 23.5585 215.144 23.8787C214.881 24.1988 214.513 24.5866 214.038 25.042L212.775 26.3192V26.369H215.967V27.4718H210.943ZM219.628 20.1861V27.4718H218.301V21.4703H218.258L216.544 22.5589V21.3493L218.365 20.1861H219.628Z" fill="url(#paint8_linear_1_38265)"/>
</g>
</g>
</g>
<defs>
<linearGradient id="paint0_linear_1_38265" x1="29.9937" y1="0.61084" x2="29.9937" y2="50.5105" gradientUnits="userSpaceOnUse">
<stop stop-color="#D0ECD1"/>
<stop offset="1" stop-color="#3C5268"/>
</linearGradient>
<linearGradient id="paint1_linear_1_38265" x1="29.9937" y1="0.61084" x2="29.9937" y2="50.5105" gradientUnits="userSpaceOnUse">
<stop stop-color="#D0ECD1"/>
<stop offset="1" stop-color="#3C5268"/>
</linearGradient>
<linearGradient id="paint2_linear_1_38265" x1="29.453" y1="13.8106" x2="29.453" y2="32.0249" gradientUnits="userSpaceOnUse">
<stop stop-color="#D0ECD1"/>
<stop offset="1" stop-color="#3C5268"/>
</linearGradient>
<linearGradient id="paint3_linear_1_38265" x1="120.177" y1="0.61084" x2="120.177" y2="50.5105" gradientUnits="userSpaceOnUse">
<stop stop-color="#D0ECD1"/>
<stop offset="1" stop-color="#3C5268"/>
</linearGradient>
<linearGradient id="paint4_linear_1_38265" x1="120.177" y1="0.61084" x2="120.177" y2="50.5105" gradientUnits="userSpaceOnUse">
<stop stop-color="#D0ECD1"/>
<stop offset="1" stop-color="#3C5268"/>
</linearGradient>
<linearGradient id="paint5_linear_1_38265" x1="119.636" y1="13.8106" x2="119.636" y2="32.0249" gradientUnits="userSpaceOnUse">
<stop stop-color="#D0ECD1"/>
<stop offset="1" stop-color="#3C5268"/>
</linearGradient>
<linearGradient id="paint6_linear_1_38265" x1="210.361" y1="0.61084" x2="210.361" y2="50.5105" gradientUnits="userSpaceOnUse">
<stop stop-color="#D0ECD1"/>
<stop offset="1" stop-color="#3C5268"/>
</linearGradient>
<linearGradient id="paint7_linear_1_38265" x1="210.361" y1="0.61084" x2="210.361" y2="50.5105" gradientUnits="userSpaceOnUse">
<stop stop-color="#D0ECD1"/>
<stop offset="1" stop-color="#3C5268"/>
</linearGradient>
<linearGradient id="paint8_linear_1_38265" x1="209.63" y1="14.7218" x2="209.63" y2="32.9361" gradientUnits="userSpaceOnUse">
<stop stop-color="#D0ECD1"/>
<stop offset="1" stop-color="#3C5268"/>
</linearGradient>
<clipPath id="clip0_1_38265">
<rect width="239.98" height="51.3" fill="white" transform="translate(0.0078125)"/>
</clipPath>
<clipPath id="clip1_1_38265">
<rect width="239.98" height="51.3" fill="white" transform="translate(0.0078125)"/>
</clipPath>
<clipPath id="clip2_1_38265">
<rect width="240" height="51" fill="white" transform="translate(-0.00390625 0.149902)"/>
</clipPath>
</defs>
</svg>
